<svg xmlns="http://www.w3.org/2000/svg" width="64" height="64" viewBox="0 0 64 64" fill="none">
  <path d="M32 8C18.7452 8 8 18.7452 8 32C8 45.2548 18.7452 56 32 56C45.2548 56 56 45.2548 56 32C56 18.7452 45.2548 8 32 8ZM32 12C43.0457 12 52 20.9543 52 32C52 43.0457 43.0457 52 32 52C20.9543 52 12 43.0457 12 32C12 20.9543 20.9543 12 32 12Z" fill="url(#paint0_linear)"/>
  <path d="M30 22V32H40V28H34V22H30Z" fill="url(#paint1_linear)"/>
  <path d="M32 40C34.2091 40 36 38.2091 36 36C36 33.7909 34.2091 32 32 32C29.7909 32 28 33.7909 28 36C28 38.2091 29.7909 40 32 40Z" fill="url(#paint2_linear)"/>
  <defs>
    <linearGradient id="paint0_linear" x1="8" y1="8" x2="56" y2="56" gradientUnits="userSpaceOnUse">
      <stop stop-color="#DC143C"/>
      <stop offset="1" stop-color="#FFFFFF"/>
    </linearGradient>
    <linearGradient id="paint1_linear" x1="30" y1="22" x2="40" y2="32" gradientUnits="userSpaceOnUse">
      <stop stop-color="#DC143C"/>
      <stop offset="1" stop-color="#FFFFFF"/>
    </linearGradient>
    <linearGradient id="paint2_linear" x1="28" y1="32" x2="36" y2="40" gradientUnits="userSpaceOnUse">
      <stop stop-color="#DC143C"/>
      <stop offset="1" stop-color="#FFFFFF"/>
    </linearGradient>
  </defs>
</svg>
