<svg xmlns="http://www.w3.org/2000/svg" width="64" height="64" viewBox="0 0 64 64" fill="none">
  <path d="M32 8C18.7452 8 8 18.7452 8 32C8 45.2548 18.7452 56 32 56C45.2548 56 56 45.2548 56 32C56 18.7452 45.2548 8 32 8ZM32 12C43.0457 12 52 20.9543 52 32C52 43.0457 43.0457 52 32 52C20.9543 52 12 43.0457 12 32C12 20.9543 20.9543 12 32 12Z" fill="url(#paint0_linear)"/>
  <path d="M24 24C24 21.7909 25.7909 20 28 20H36C38.2091 20 40 21.7909 40 24V40C40 42.2091 38.2091 44 36 44H28C25.7909 44 24 42.2091 24 40V24Z" fill="url(#paint1_linear)"/>
  <defs>
    <linearGradient id="paint0_linear" x1="8" y1="8" x2="56" y2="56" gradientUnits="userSpaceOnUse">
      <stop stop-color="#DC143C"/>
      <stop offset="1" stop-color="#FFFFFF"/>
    </linearGradient>
    <linearGradient id="paint1_linear" x1="24" y1="20" x2="40" y2="44" gradientUnits="userSpaceOnUse">
      <stop stop-color="#DC143C"/>
      <stop offset="1" stop-color="#FFFFFF"/>
    </linearGradient>
  </defs>
</svg>
