<svg xmlns="http://www.w3.org/2000/svg" width="64" height="64" viewBox="0 0 64 64" fill="none">
  <path d="M20 22C17.7909 22 16 23.7909 16 26C16 28.2091 17.7909 30 20 30C22.2091 30 24 28.2091 24 26C24 23.7909 22.2091 22 20 22Z" fill="url(#paint0_linear)"/>
  <path d="M44 34C41.7909 34 40 35.7909 40 38C40 40.2091 41.7909 42 44 42C46.2091 42 48 40.2091 48 38C48 35.7909 46.2091 34 44 34Z" fill="url(#paint1_linear)"/>
  <path d="M32 12C20.9543 12 12 20.9543 12 32C12 43.0457 20.9543 52 32 52C43.0457 52 52 43.0457 52 32C52 20.9543 43.0457 12 32 12ZM32 16C40.8366 16 48 23.1634 48 32C48 40.8366 40.8366 48 32 48C23.1634 48 16 40.8366 16 32C16 23.1634 23.1634 16 32 16Z" fill="url(#paint2_linear)"/>
  <defs>
    <linearGradient id="paint0_linear" x1="16" y1="22" x2="24" y2="30" gradientUnits="userSpaceOnUse">
      <stop stop-color="#DC143C"/>
      <stop offset="1" stop-color="#FFFFFF"/>
    </linearGradient>
    <linearGradient id="paint1_linear" x1="40" y1="34" x2="48" y2="42" gradientUnits="userSpaceOnUse">
      <stop stop-color="#DC143C"/>
      <stop offset="1" stop-color="#FFFFFF"/>
    </linearGradient>
    <linearGradient id="paint2_linear" x1="12" y1="12" x2="52" y2="52" gradientUnits="userSpaceOnUse">
      <stop stop-color="#DC143C"/>
      <stop offset="1" stop-color="#FFFFFF"/>
    </linearGradient>
  </defs>
</svg>
